<svg xmlns="http://www.w3.org/2000/svg" xmlns:xlink="http://www.w3.org/1999/xlink" viewBox="0 0 432 432"><defs><path id="a" d="M245.6 182.7c0 16.4-13.3 29.6-29.6 29.6-16.4 0-29.6-13.3-29.6-29.6 0-16.4 13.3-29.6 29.6-29.6 16.4-.1 29.6 13.2 29.6 29.6zm-68.1 37c-16.4 0-29.6 13.3-29.6 29.6 0 16.4 13.3 29.6 29.6 29.6 16.4 0 29.6-13.3 29.6-29.6s-13.2-29.6-29.6-29.6zm77 0c-16.4 0-29.6 13.3-29.6 29.6 0 16.4 13.3 29.6 29.6 29.6 16.4 0 29.6-13.3 29.6-29.6s-13.2-29.6-29.6-29.6z"/></defs><clipPath id="b"><use overflow="visible" xlink:href="#a"/></clipPath><radialGradient id="c" cx="-16548.863" cy="3963.342" r="99.489" gradientTransform="rotate(-90 -7470.26 -4713.753) scale(.75)" gradientUnits="userSpaceOnUse"><stop offset="0" stop-color="#fdb813"/><stop offset=".6" stop-color="#f05e8f"/><stop offset=".999" stop-color="#f05656"/></radialGradient><path fill="url(#c)" d="M216 153c41.2 0 74.6 33.4 74.6 74.6 0 41.2-33.4 74.6-74.6 74.6-41.2 0-74.6-33.4-74.6-74.6 0-41.2 33.4-74.6 74.6-74.6z" clip-path="url(#b)"/></svg>