<svg xmlns="http://www.w3.org/2000/svg" fill="none" viewBox="0 0 383 520"><path fill="url(#a)" d="m42.976 279.232 55.204-42.717c29.33 38.665 60.491 56.487 95.177 56.487 34.5 0 64.78-17.611 92.788-55.971l55.993 41.686c-40.412 55.316-90.632 84.543-148.781 84.543-57.964 0-108.67-29.04-150.381-84.028Z"/><path fill="url(#b)" d="m193.176 93.568-98.26 85.527-45.42-53.209L193.384.641 336.138 125.98l-45.629 53.021-97.333-85.433Z"/><path fill="#111" fill-rule="evenodd" d="M101.976 423.125c0 6.141 4.433 10.618 10.513 10.618v.008c5.88 0 10.421-4.485 10.421-10.626 0-5.939-4.541-10.417-10.421-10.417-5.872 0-10.513 4.478-10.513 10.417Zm-6.684-6.252v79.479H77.144v-79.479h18.148Zm-55.266 80.624c-11.135-.001-20.415-3.646-27.941-10.937C4.558 479.167.848 469.691.848 458.124c0-11.661 3.81-21.246 11.337-28.747 7.634-7.603 16.916-11.35 27.952-11.35 13.615 0 25.675 5.931 32.694 15.205l-12.284 13.021c-5.88-6.359-12.275-9.585-19.178-9.585-5.88 0-10.729 1.975-14.754 6.04-3.917 4.066-5.872 9.173-5.872 15.315 0 5.939 1.955 10.937 5.872 15.003 4.025 3.957 8.874 5.931 14.646 5.931 7.527 0 14.13-3.335 19.594-9.896l12.791 12.399c-3.51 4.688-8.25 8.543-14.13 11.56-5.879 3.023-12.373 4.477-19.49 4.477Zm81.643-58.647v57.502h-18.255V438.85h18.255Zm13.089 50.312c5.664 5.628 12.883 8.442 21.857 8.442 12.067 0 22.272-5.939 27.229-15.524l-14.546-8.745c-2.063 4.477-6.911 7.392-12.168 7.392-7.326 0-12.791-5.628-12.791-13.231a13.054 13.054 0 0 1 3.61-9.266c2.478-2.503 5.572-3.754 9.389-3.754 5.256 0 9.282 2.503 12.168 7.4l14.538-7.711c-4.841-10.938-15.262-16.768-27.122-16.768-9.073 0-16.392 2.806-22.064 8.434-5.672 5.628-8.458 12.811-8.458 21.665 0 8.855 2.786 16.045 8.358 21.666Zm112.381 7.19h-21.664l-16.816-22.816-2.679 2.503v20.313h-18.139v-79.479h18.147v38.643l17.116-16.666h22.173l-24.435 23.126 26.297 34.376Zm1.219-76.981v47.086c0 22.706 15.677 31.25 31.455 31.25 15.877 0 31.454-8.544 31.454-31.25v-47.086h-19.495v46.775c0 8.434-4.948 12.811-11.959 12.811-7.119 0-12.068-4.167-12.068-12.811v-46.775h-19.387Zm105.992 18.026c8.15 0 14.753 2.915 20.01 8.745 5.256 5.729 7.834 12.92 7.834 21.354 0 8.443-2.678 15.626-7.934 21.565-5.265 5.83-11.86 8.753-19.803 8.753-6.295 0-11.759-2.083-16.192-6.25V520H320.01v-81.15h17.947v5.318c4.433-4.486 9.897-6.771 16.393-6.771Zm-3.505 17.081c7.427 0 12.784 5.729 12.784 13.23h.007a13.48 13.48 0 0 1-3.617 9.375c-2.37 2.605-5.464 3.856-9.174 3.856-3.717 0-6.811-1.251-9.281-3.856-2.378-2.604-3.61-5.729-3.61-9.375 0-7.501 5.465-13.23 12.891-13.23Z" clip-rule="evenodd"/><defs><linearGradient id="a" x1="42.976" x2="342.138" y1="386.086" y2="386.086" gradientUnits="userSpaceOnUse"><stop stop-color="#8930FD"/><stop offset="1" stop-color="#49CCF9"/></linearGradient><linearGradient id="b" x1="49.495" x2="336.138" y1="211.234" y2="211.234" gradientUnits="userSpaceOnUse"><stop stop-color="#FF02F0"/><stop offset="1" stop-color="#FFC800"/></linearGradient></defs></svg>