<svg id="Layer_1" xmlns="http://www.w3.org/2000/svg" viewBox="0 0 23.5 18"><style>.st1{fill:#fff}</style><path d="M16.7 0H1.3C.6 0 0 .6 0 1.3v15.4c0 .7.6 1.3 1.3 1.3h15.3c.7 0 1.3-.6 1.3-1.3V1.3C18 .6 17.4 0 16.7 0z" fill="#007bb6"/><path class="st1" d="M2.7 6.7h2.7v8.6H2.7V6.7zM4 2.5c.9 0 1.5.7 1.5 1.5S4.9 5.6 4 5.6 2.5 4.9 2.5 4 3.1 2.5 4 2.5m3 4.2h2.6v1.2c.4-.7 1.2-1.4 2.5-1.4 2.7 0 3.2 1.8 3.2 4.1v4.7h-2.7v-4.2c0-1 0-2.3-1.4-2.3S9.6 9.9 9.6 11v4.2H7V6.7zm14.7 7.2c.4 0 .6-.3.6-.6 0-.4-.3-.6-.8-.6h-.9v2.2h.3v-1h.4l.6 1h.3l-.5-1zm-.4-.2h-.4v-.8h.5c.2 0 .5 0 .5.4 0 .3-.3.4-.6.4z"/><path class="st1" d="M21.3 11.6c-1.2 0-2.1.9-2.1 2.1 0 1.2.9 2.1 2.1 2.1 1.2 0 2.1-.9 2.1-2.1.1-1.1-.9-2.1-2.1-2.1zm0 4c-1 0-1.8-.8-1.8-1.9 0-1 .8-1.8 1.8-1.8s1.8.8 1.8 1.8c0 1.1-.8 1.9-1.8 1.9z"/></svg>