<svg xmlns="http://www.w3.org/2000/svg" viewBox="0 0 120 125"><g fill="none"><path fill="#FFF" d="M7.543 5.39 76.917.285c8.52-.73 10.712-.241 16.066 3.646l22.145 15.553c3.654 2.674 4.872 3.402 4.872 6.318v85.302c0 5.346-1.949 8.508-8.763 8.992l-80.564 4.861c-5.115.244-7.549-.485-10.228-3.89L4.137 99.926C1.215 96.033 0 93.122 0 89.715V13.893C0 9.52 1.95 5.874 7.543 5.39z"/><path fill="#000" d="M20.693 21.915c3.89 3.159 5.35 2.918 12.656 2.43l68.879-4.132c1.461 0 .246-1.456-.241-1.698l-11.44-8.264c-2.191-1.7-5.111-3.648-10.708-3.16l-66.696 4.86c-2.432.241-2.918 1.457-1.95 2.43l9.5 7.534zm4.135 16.04v72.419c0 3.892 1.947 5.348 6.327 5.107l75.698-4.377c4.383-.24 4.871-2.917 4.871-6.08V33.093c0-3.156-1.215-4.859-3.898-4.616l-79.105 4.616c-2.92.245-3.893 1.705-3.893 4.863zm74.729 3.885c.485 2.19 0 4.377-2.195 4.623l-3.648.726v53.464c-3.166 1.7-6.087 2.673-8.52 2.673-3.896 0-4.871-1.216-7.79-4.86L53.547 61.043v36.21l7.55 1.702s0 4.372-6.091 4.372l-16.791.973c-.488-.973 0-3.401 1.703-3.888l4.382-1.213V51.322l-6.084-.487c-.488-2.19.727-5.346 4.137-5.591l18.013-1.214 24.828 37.913V48.404l-6.33-.726c-.486-2.676 1.459-4.62 3.893-4.86l16.8-.978zM7.543 5.39 76.917.285c8.52-.73 10.712-.241 16.066 3.646l22.145 15.553c3.654 2.674 4.872 3.402 4.872 6.318v85.302c0 5.346-1.949 8.508-8.763 8.992l-80.564 4.861c-5.115.244-7.549-.485-10.228-3.89L4.137 99.926C1.215 96.033 0 93.122 0 89.715V13.893C0 9.52 1.95 5.874 7.543 5.39z"/></g></svg>