<svg xmlns="http://www.w3.org/2000/svg" id="Layer_1" x="0" y="0" version="1.1" viewBox="0 0 390 267" xml:space="preserve"><style>.st0{fill:#003059}</style><path d="M54.03 208.04a9.589 9.589 0 0 0-2.77-2.35c-1.1-.63-2.45-.95-4.04-.95-1.5 0-2.8.32-3.9.95-1.1.63-1.65 1.56-1.65 2.77 0 .98.32 1.78.95 2.39.63.61 1.38 1.1 2.25 1.47.87.38 1.79.66 2.77.84.98.19 1.83.35 2.53.49 1.36.33 2.63.73 3.83 1.19 1.19.47 2.22 1.08 3.09 1.83.87.75 1.54 1.66 2.04 2.74.49 1.08.74 2.39.74 3.93 0 1.87-.4 3.48-1.19 4.81-.8 1.33-1.83 2.42-3.09 3.27-1.26.84-2.7 1.45-4.32 1.83-1.61.37-3.24.56-4.88.56-2.76 0-5.19-.42-7.27-1.26-2.08-.84-3.94-2.39-5.58-4.63l4.77-3.93c1.03 1.03 2.18 1.94 3.44 2.74s2.81 1.19 4.63 1.19c.8 0 1.6-.08 2.42-.25.82-.16 1.54-.42 2.18-.77.63-.35 1.15-.8 1.54-1.33.4-.54.6-1.16.6-1.86 0-.94-.29-1.71-.88-2.32a6.38 6.38 0 0 0-2.11-1.44c-.82-.35-1.69-.63-2.6-.84-.91-.21-1.72-.39-2.42-.53-1.36-.33-2.65-.7-3.86-1.12-1.22-.42-2.29-.98-3.23-1.68a7.69 7.69 0 0 1-2.25-2.67c-.56-1.08-.84-2.41-.84-4 0-1.73.36-3.24 1.09-4.53a9.719 9.719 0 0 1 2.88-3.2c1.19-.84 2.55-1.47 4.07-1.9 1.52-.42 3.05-.63 4.6-.63 2.25 0 4.4.42 6.46 1.26 2.06.84 3.7 2.25 4.92 4.21l-4.92 3.72zM62.78 199.69h5.9v5.2h.14c.14-.47.5-1.05 1.09-1.75.58-.7 1.33-1.37 2.25-2 .91-.63 1.99-1.17 3.23-1.61 1.24-.44 2.61-.67 4.11-.67 2.48 0 4.56.52 6.25 1.55 1.69 1.03 3.07 2.58 4.14 4.63 1.08-2.06 2.6-3.6 4.56-4.63s3.96-1.55 5.97-1.55c2.57 0 4.68.42 6.32 1.26 1.64.84 2.93 1.95 3.86 3.33.94 1.38 1.58 2.95 1.93 4.7.35 1.76.53 3.57.53 5.44v19.38h-6.32v-18.54c0-1.26-.08-2.48-.25-3.65-.16-1.17-.5-2.2-1.02-3.09a5.82 5.82 0 0 0-2.18-2.14c-.94-.54-2.18-.81-3.72-.81-3.04 0-5.22.94-6.53 2.81-1.31 1.87-1.97 4.28-1.97 7.23v18.19h-6.32v-17.41c0-1.59-.08-3.04-.25-4.35-.16-1.31-.49-2.44-.98-3.41a5.39 5.39 0 0 0-2.11-2.25c-.91-.54-2.14-.81-3.69-.81-1.12 0-2.21.22-3.27.67a7.74 7.74 0 0 0-2.77 2c-.8.89-1.43 2.03-1.9 3.41-.47 1.38-.7 3.01-.7 4.88v17.27h-6.32l.02-33.28zM117.76 203.76a17.61 17.61 0 0 1 6.18-3.69c2.34-.82 4.68-1.23 7.02-1.23 2.43 0 4.53.31 6.28.91 1.76.61 3.2 1.43 4.32 2.46s1.95 2.21 2.49 3.55c.54 1.33.81 2.73.81 4.18v16.99a56.78 56.78 0 0 0 .28 6.04h-5.62c-.14-1.69-.21-3.37-.21-5.06h-.14c-1.4 2.15-3.07 3.68-4.99 4.56-1.92.89-4.14 1.33-6.67 1.33-1.54 0-3.02-.21-4.42-.63-1.4-.42-2.63-1.05-3.69-1.9a8.947 8.947 0 0 1-2.49-3.12c-.61-1.24-.91-2.68-.91-4.32 0-2.15.48-3.96 1.44-5.41.96-1.45 2.27-2.63 3.93-3.55 1.66-.91 3.6-1.57 5.83-1.97 2.22-.4 4.6-.6 7.13-.6h4.63v-1.4c0-.84-.16-1.68-.49-2.53-.33-.84-.82-1.6-1.47-2.28-.66-.68-1.47-1.22-2.46-1.61-.98-.4-2.15-.6-3.51-.6-1.22 0-2.28.12-3.19.35-.91.23-1.74.53-2.49.88-.75.35-1.43.76-2.04 1.23-.61.47-1.19.91-1.76 1.33l-3.79-3.91zm17.84 13.2c-1.5 0-3.03.08-4.6.25-1.57.16-3 .48-4.28.95-1.29.47-2.34 1.12-3.16 1.97-.82.84-1.23 1.92-1.23 3.23 0 1.92.64 3.3 1.93 4.14 1.29.84 3.03 1.26 5.23 1.26 1.73 0 3.21-.29 4.42-.88 1.22-.59 2.2-1.34 2.95-2.28.75-.94 1.29-1.98 1.61-3.13.33-1.15.49-2.28.49-3.41v-2.11h-3.36zM220.01 208.04a9.589 9.589 0 0 0-2.77-2.35c-1.1-.63-2.45-.95-4.04-.95-1.5 0-2.8.32-3.9.95s-1.65 1.56-1.65 2.77c0 .98.32 1.78.95 2.39.63.61 1.38 1.1 2.25 1.47.87.38 1.79.66 2.77.84.98.19 1.83.35 2.53.49 1.36.33 2.63.73 3.83 1.19 1.19.47 2.22 1.08 3.09 1.83.87.75 1.55 1.66 2.04 2.74.49 1.08.74 2.39.74 3.93 0 1.87-.4 3.48-1.19 4.81-.8 1.33-1.83 2.42-3.09 3.27-1.26.84-2.7 1.45-4.32 1.83-1.61.37-3.24.56-4.88.56-2.76 0-5.18-.42-7.27-1.26-2.08-.84-3.94-2.39-5.58-4.63l4.78-3.93c1.03 1.03 2.18 1.94 3.44 2.74 1.26.8 2.81 1.19 4.63 1.19.8 0 1.6-.08 2.42-.25.82-.16 1.54-.42 2.18-.77.63-.35 1.15-.8 1.54-1.33.4-.54.6-1.16.6-1.86 0-.94-.29-1.71-.88-2.32a6.38 6.38 0 0 0-2.11-1.44c-.82-.35-1.69-.63-2.6-.84-.91-.21-1.72-.39-2.42-.53-1.36-.33-2.65-.7-3.86-1.12-1.22-.42-2.29-.98-3.23-1.68a7.69 7.69 0 0 1-2.25-2.67c-.56-1.08-.84-2.41-.84-4 0-1.73.36-3.24 1.09-4.53a9.719 9.719 0 0 1 2.88-3.2c1.19-.84 2.55-1.47 4.07-1.9 1.52-.42 3.05-.63 4.6-.63 2.25 0 4.4.42 6.46 1.26 2.06.84 3.7 2.25 4.92 4.21l-4.93 3.72zM229 179.88h6.32v24.93h.14c.79-1.78 2.18-3.22 4.14-4.32 1.97-1.1 4.24-1.65 6.81-1.65 1.59 0 3.12.25 4.6.74a10.3 10.3 0 0 1 3.86 2.28c1.1 1.03 1.98 2.35 2.63 3.97.66 1.61.98 3.52.98 5.72v21.42h-6.32v-19.66c0-1.54-.21-2.87-.63-3.97-.42-1.1-.98-1.99-1.69-2.67-.7-.68-1.51-1.17-2.42-1.48-.91-.3-1.86-.46-2.84-.46-1.31 0-2.53.21-3.65.63a7.63 7.63 0 0 0-2.95 2c-.84.91-1.5 2.07-1.97 3.48-.47 1.4-.7 3.07-.7 4.98v17.13H229v-53.07zM268.46 218.64c0 1.45.32 2.77.95 3.97s1.46 2.21 2.49 3.05c1.03.84 2.22 1.5 3.58 1.97 1.36.47 2.76.7 4.21.7 1.97 0 3.67-.46 5.13-1.37 1.45-.91 2.78-2.12 4-3.62l4.77 3.65c-3.51 4.54-8.43 6.81-14.75 6.81-2.62 0-5-.45-7.13-1.33-2.13-.89-3.93-2.12-5.41-3.69-1.47-1.57-2.61-3.42-3.41-5.55-.8-2.13-1.19-4.43-1.19-6.92 0-2.48.43-4.79 1.3-6.92.87-2.13 2.06-3.98 3.58-5.55s3.34-2.8 5.44-3.69c2.11-.89 4.4-1.33 6.88-1.33 2.95 0 5.44.52 7.48 1.55s3.71 2.38 5.02 4.04c1.31 1.66 2.26 3.54 2.84 5.62.58 2.08.88 4.2.88 6.36v2.25h-26.66zm19.95-5.05c-.05-1.4-.27-2.69-.67-3.86s-1-2.19-1.79-3.05c-.8-.87-1.79-1.55-2.98-2.04s-2.59-.74-4.18-.74c-1.55 0-2.96.29-4.25.88-1.29.59-2.38 1.35-3.27 2.28-.89.94-1.58 1.98-2.07 3.13-.49 1.15-.74 2.28-.74 3.41l19.95-.01zM305.43 218.64c0 1.45.32 2.77.95 3.97s1.46 2.21 2.49 3.05c1.03.84 2.22 1.5 3.58 1.97 1.36.47 2.76.7 4.21.7 1.97 0 3.67-.46 5.13-1.37 1.45-.91 2.78-2.12 4-3.62l4.77 3.65c-3.51 4.54-8.43 6.81-14.75 6.81-2.62 0-5-.45-7.13-1.33-2.13-.89-3.93-2.12-5.41-3.69-1.47-1.57-2.61-3.42-3.41-5.55-.8-2.13-1.19-4.43-1.19-6.92 0-2.48.43-4.79 1.3-6.92.87-2.13 2.06-3.98 3.58-5.55s3.34-2.8 5.44-3.69c2.11-.89 4.4-1.33 6.88-1.33 2.95 0 5.44.52 7.48 1.55s3.71 2.38 5.02 4.04c1.31 1.66 2.26 3.54 2.84 5.62.58 2.08.88 4.2.88 6.36v2.25h-26.66zm19.94-5.05c-.05-1.4-.27-2.69-.67-3.86s-1-2.19-1.79-3.05c-.8-.87-1.79-1.55-2.98-2.04s-2.59-.74-4.18-.74c-1.55 0-2.96.29-4.25.88-1.29.59-2.38 1.35-3.27 2.28-.89.94-1.58 1.98-2.07 3.13s-.74 2.28-.74 3.41h19.95zM169.53 199.77s-3.73-.5-5.76-.36c-2.4.17-3.25.53-4.55 1.24-.89.48-1.65 1.14-2.35 1.86-.7.73-1.26 1.53-1.68 2.42h-.14v-5.13h-6.32v33.28h6.32s-.17-13.75.01-17.03c.18-3.38.77-6.84 2.51-8.47 1.77-1.66 2.62-2 4.81-2.31 2.03-.29 4.74-.04 4.74-.04l2.41-5.46zM192.8 227.7c-.8.14-1.57.21-2.32.21-1.22 0-2.14-.22-2.77-.67-.63-.45-1.1-1.03-1.4-1.76-.3-.73-.48-1.54-.53-2.46-.05-.91-.07-1.84-.07-2.77v-15.1h9.06v-5.48h-9.06v-9.34h-6.32v9.34h-6.36l-2.41 5.48h8.77v17.34c0 1.36.06 2.7.18 4.04.12 1.33.49 2.54 1.12 3.62.63 1.08 1.61 1.96 2.95 2.63 1.33.68 3.22 1.02 5.65 1.02.66 0 1.58-.08 2.77-.25 1.19-.16 2.17-.46 2.91-.88v-5.76c-.65.4-1.37.65-2.17.79zM354.29 227.7c-.8.14-1.57.21-2.32.21-1.22 0-2.14-.22-2.77-.67-.63-.45-1.1-1.03-1.4-1.76-.3-.73-.48-1.54-.53-2.46-.05-.91-.07-1.84-.07-2.77v-15.1h9.06v-5.48h-9.06v-9.34h-6.32v9.34h-6.36l-2.41 5.48h8.77v17.34c0 1.36.06 2.7.18 4.04.12 1.33.49 2.54 1.12 3.62.63 1.08 1.61 1.96 2.95 2.63 1.33.68 3.22 1.02 5.65 1.02.66 0 1.58-.08 2.77-.25 1.19-.16 2.17-.46 2.91-.88v-5.76c-.64.4-1.37.65-2.17.79z" class="st0"/><g><path d="M161.11 87.45s5.67-8.08 13.28-8.24c11.71-.25 21.27 20.87 22.73 23.92 12.94-28.98 34.39-53.53 51.82-69.94H142c.01 10.06.11 111.52.11 119.83 0 6.59-.89 11.27-1.39 13.36 4.72-.74 22.73-3.81 41.01-10.38 32.48-11.68 45.21-24.12 45.33-24.24l.82-.82.47 1.06c.04.09 4.07 9.01 8.11 13.77 4.48 5.28 7.01 5.9 8.34 5.48 1.82-.56 3.04-3.52 3.55-8.54.48-4.79.92-15.73.91-28.96-.01-23.91 0-55.46 0-71.33-31.53 38.68-54.73 96.62-54.73 96.62s-15.22-51.96-33.42-51.59z" class="st0"/></g></svg>