<svg xmlns="http://www.w3.org/2000/svg" viewBox="0 0 80 80"><defs><linearGradient id="a" x1="40" x2="40" y1="70.47" y2="9.53" gradientUnits="userSpaceOnUse"><stop offset="0" stop-color="#0052cc"/><stop offset="1" stop-color="#2684ff"/></linearGradient></defs><path d="M63.22 9.53H16.78a7.26 7.26 0 0 0-7.25 7.25v46.44a7.26 7.26 0 0 0 7.25 7.25h46.44a7.26 7.26 0 0 0 7.25-7.25V16.78a7.26 7.26 0 0 0-7.25-7.25ZM35.78 53.42a2.41 2.41 0 0 1-2.41 2.41H23.19a2.41 2.41 0 0 1-2.41-2.41V23.19a2.41 2.41 0 0 1 2.41-2.41h10.18a2.41 2.41 0 0 1 2.41 2.41Zm23.44-13.88A2.41 2.41 0 0 1 56.81 42H46.63a2.41 2.41 0 0 1-2.41-2.41v-16.4a2.41 2.41 0 0 1 2.41-2.41h10.18a2.41 2.41 0 0 1 2.41 2.41Z" style="fill-rule:evenodd;fill:url(#a)"/></svg>