<svg xmlns="http://www.w3.org/2000/svg" fill="none" viewBox="0 0 364 231"><path fill="#08CF65" d="M85.375 84.242c17.623 0 25.929 3.256 38.69 16.075l68.469 68.778c2.025 2.035 2.43 2.848 2.835 4.069.203.407.203 1.018.203 1.425 0 .407 0 1.017-.203 1.424-.405 1.221-.81 2.035-2.835 4.07l-46.794 47.208c-2.025 2.035-2.836 2.442-4.051 2.849-.405.203-1.013.203-1.418.203s-1.013 0-1.418-.203c-1.215-.407-2.026-.814-4.051-2.849L2.119 94.009c-3.848-3.866-2.43-9.767 4.052-9.767h79.204ZM278.625.203c-17.623 0-25.929 3.256-38.69 16.076l-68.469 68.777c-2.025 2.035-2.43 2.849-2.836 4.07-.202.407-.202 1.017-.202 1.424 0 .407 0 1.018.202 1.425.406 1.22.811 2.035 2.836 4.07l46.794 47.004c2.025 2.035 2.836 2.442 4.051 2.849.405.203 1.013.203 1.418.203s1.013 0 1.418-.203c1.215-.407 2.026-.814 4.051-2.849L361.881 9.767C365.729 5.901 364.311 0 357.829 0h-79.204v.203Z"/></svg>